<?xml version="1.0" encoding="UTF-8"?>
<svg width="56px" height="56px" viewBox="0 0 56 56" version="1.1" xmlns="http://www.w3.org/2000/svg" xmlns:xlink="http://www.w3.org/1999/xlink">
    <!-- Generator: Sketch 53 (72520) - https://sketchapp.com -->
    <title>Shape</title>
    <desc>Created with Sketch.</desc>
    <g id="PROD" stroke="none" stroke-width="1" fill="none" fill-rule="evenodd">
        <g id="14_Desktop-/-Page_Corporate" transform="translate(-449.000000, -4264.000000)" fill="#262626" fill-rule="nonzero">
            <g id="Group-9" transform="translate(290.000000, 4206.000000)">
                <path d="M164.5,70 L159,70 L159,108.5 C159,111.525 161.475,114 164.5,114 L203,114 L203,108.5 L164.5,108.5 L164.5,70 Z M209.5,58 L176.5,58 C173.475,58 171,60.475 171,63.5 L171,96.5 C171,99.525 173.475,102 176.5,102 L209.5,102 C212.525,102 215,99.525 215,96.5 L215,63.5 C215,60.475 212.525,58 209.5,58 Z M187,94 L187,68 L203,81 L187,94 Z" id="Shape"></path>
            </g>
        </g>
    </g>
</svg>