<svg xmlns="http://www.w3.org/2000/svg" width="26" height="25" viewBox="0 0 26 25">
    <g fill="#262626" fill-rule="evenodd">
        <path d="M12.75 0C9.355 0 8.93.014 7.596.075c-1.33.06-2.239.272-3.034.581-.822.32-1.52.747-2.214 1.442A6.128 6.128 0 0 0 .906 4.312c-.309.795-.52 1.704-.58 3.034C.263 8.68.25 9.106.25 12.5c0 3.395.014 3.82.075 5.154.061 1.33.272 2.239.581 3.034.32.822.747 1.52 1.442 2.214a6.127 6.127 0 0 0 2.214 1.442c.795.309 1.704.52 3.034.58 1.334.062 1.76.076 5.154.076 3.395 0 3.82-.014 5.154-.075 1.33-.06 2.239-.272 3.034-.581a6.127 6.127 0 0 0 2.214-1.442 6.128 6.128 0 0 0 1.442-2.214c.309-.795.52-1.704.58-3.034.062-1.334.076-1.76.076-5.154 0-3.395-.014-3.82-.075-5.154-.061-1.33-.272-2.239-.581-3.034a6.128 6.128 0 0 0-1.442-2.214A6.127 6.127 0 0 0 20.938.656c-.795-.309-1.704-.52-3.034-.58C16.57.013 16.144 0 12.75 0m0 2.252c3.338 0 3.733.013 5.051.073 1.219.056 1.88.26 2.321.43.584.227 1 .498 1.437.936.438.437.709.853.935 1.437.172.44.375 1.102.43 2.32.061 1.319.074 1.714.074 5.052 0 3.338-.013 3.733-.073 5.051-.056 1.219-.26 1.88-.43 2.321-.227.584-.498 1-.936 1.437a3.873 3.873 0 0 1-1.437.935c-.44.172-1.102.375-2.321.43-1.318.061-1.713.074-5.051.074s-3.733-.013-5.051-.073c-1.219-.056-1.88-.26-2.321-.43-.584-.227-1-.498-1.437-.936a3.873 3.873 0 0 1-.935-1.437c-.172-.44-.375-1.102-.43-2.32-.061-1.319-.074-1.714-.074-5.052 0-3.338.013-3.733.073-5.051.056-1.219.26-1.88.43-2.321.227-.584.498-1 .936-1.437a3.873 3.873 0 0 1 1.437-.935c.44-.172 1.102-.375 2.32-.43 1.319-.061 1.714-.074 5.052-.074"/>
        <path d="M12.412 16.892a4.73 4.73 0 1 1 0-9.46 4.73 4.73 0 0 1 0 9.46m0-11.487a6.757 6.757 0 1 0 0 13.514 6.757 6.757 0 0 0 0-13.514M21.196 5.405a2.027 2.027 0 1 1-4.054 0 2.027 2.027 0 0 1 4.054 0"/>
    </g>
</svg>
