<?xml version="1.0" encoding="UTF-8"?>
<svg version="1.1" viewBox="0 0 65 65" xmlns="http://www.w3.org/2000/svg">
<title>Icon</title>
<desc>Created with Sketch.</desc>
<g fill="none" fill-rule="evenodd">
<g transform="translate(-1027 -5251)" fill="#5FEB98">
<g transform="translate(0 4743)">
<g transform="translate(360 504)">
<g transform="translate(667 4)">
<path d="m32.5 0c-8.8265 0-9.9333 0.037413-13.4 0.19558-3.4594 0.15778-5.8218 0.70723-7.8891 1.5106-2.1372 0.83056-3.9496 1.9418-5.7564 3.7486-1.8068 1.8069-2.918 3.6193-3.7486 5.7565-0.80347 2.0672-1.3528 4.4298-1.5107 7.889-0.15816 3.4665-0.19558 4.5732-0.19558 13.4 0 8.8264 0.037413 9.9332 0.19558 13.4 0.15791 3.4592 0.70723 5.8218 1.5107 7.889 0.83056 2.1372 1.9418 3.9496 3.7486 5.7565 1.8068 1.8068 3.6192 2.9181 5.7564 3.7486 2.0674 0.80334 4.4298 1.3528 7.8891 1.5106 3.4663 0.15816 4.5731 0.19558 13.4 0.19558s9.9333-0.037413 13.4-0.19558c3.4594-0.15778 5.8218-0.70723 7.8891-1.5106 2.1372-0.83056 3.9496-1.9418 5.7564-3.7486 1.8068-1.8069 2.918-3.6193 3.7486-5.7565 0.80347-2.0672 1.3528-4.4298 1.5107-7.889 0.15816-3.4665 0.19558-4.5732 0.19558-13.4 0-8.8265-0.037412-9.9333-0.19558-13.4-0.15791-3.4592-0.70723-5.8218-1.5107-7.889-0.83056-2.1372-1.9418-3.9496-3.7486-5.7565-1.8068-1.8068-3.6192-2.9181-5.7564-3.7486-2.0674-0.80334-4.4298-1.3528-7.8891-1.5106-3.4663-0.15816-4.5731-0.19558-13.4-0.19558m0 5.8558c8.6779 0 9.7057 0.033155 13.133 0.18951 3.1687 0.14449 4.8897 0.67394 6.0349 1.119 1.5169 0.58957 2.5995 1.2938 3.7369 2.4312 1.1372 1.1372 1.8416 2.2199 2.4312 3.7369 0.44495 1.1452 0.9744 2.8661 1.119 6.0348 0.15636 3.427 0.18938 4.4549 0.18938 13.133 0 8.6778-0.033026 9.7057-0.18938 13.133-0.14462 3.1687-0.67407 4.8896-1.119 6.0348-0.58957 1.517-1.294 2.5997-2.4312 3.7369-1.1373 1.1373-2.22 1.8416-3.7369 2.4312-1.1452 0.44508-2.8662 0.97453-6.0349 1.119-3.4265 0.15636-4.4543 0.18951-13.133 0.18951s-9.7062-0.033155-13.133-0.18951c-3.1687-0.14449-4.8897-0.67394-6.0349-1.119-1.5169-0.58957-2.5995-1.2938-3.7369-2.4312-1.1372-1.1372-1.8416-2.2199-2.4312-3.7369-0.44495-1.1452-0.9744-2.8661-1.119-6.0348-0.15636-3.427-0.18938-4.4549-0.18938-13.133 0-8.6779 0.033026-9.7059 0.18938-13.133 0.14462-3.1687 0.67407-4.8896 1.119-6.0348 0.58957-1.517 1.294-2.5997 2.4312-3.7369 1.1373-1.1373 2.22-1.8416 3.7369-2.4312 1.1452-0.44508 2.8662-0.97453 6.0348-1.119 3.4271-0.15636 4.4549-0.18951 13.133-0.18951"/>
<path d="m31.622 43.919c-6.7916 0-12.297-5.5057-12.297-12.297 0-6.7917 5.5058-12.297 12.297-12.297 6.7916 0 12.297 5.5057 12.297 12.297 0 6.7916-5.5057 12.297-12.297 12.297m-7.32e-5 -29.865c-9.7023 0-17.568 7.8652-17.568 17.568 0 9.7023 7.8653 17.567 17.568 17.567 9.7023 0 17.568-7.8652 17.568-17.567 0-9.7024-7.8653-17.568-17.568-17.568"/>
<path d="m54.459 14.054c0 2.9108-2.3596 5.2703-5.2702 5.2703-2.9107 0-5.2704-2.3595-5.2704-5.2703 0-2.9108 2.3596-5.2703 5.2704-5.2703 2.9105 0 5.2702 2.3595 5.2702 5.2703"/>
</g>
</g>
</g>
</g>
</g>
</svg>
