<?xml version="1.0" encoding="UTF-8"?>
<svg version="1.1" viewBox="0 0 1440 1440" xml:space="preserve" xmlns="http://www.w3.org/2000/svg" xmlns:cc="http://creativecommons.org/ns#" xmlns:dc="http://purl.org/dc/elements/1.1/" xmlns:rdf="http://www.w3.org/1999/02/22-rdf-syntax-ns#"><metadata><rdf:RDF><cc:Work rdf:about=""><dc:format>image/svg+xml</dc:format><dc:type rdf:resource="http://purl.org/dc/dcmitype/StillImage"/></cc:Work></rdf:RDF></metadata><defs><clipPath id="a"><path d="m0 1080h1080v-1080h-1080z"/></clipPath></defs><g transform="matrix(1.3333 0 0 -1.3333 0 1440)"><path d="m0 0.043h1080v1080h-1080z" fill="#58ec94"/><g clip-path="url(#a)"><g transform="translate(328.44 561.56)"><path d="m0 0c0-28.035 14.715-47.66 38.545-47.66 23.481 0 38.197 19.625 38.197 47.66s-14.716 46.958-38.197 46.958c-23.83 0-38.545-18.923-38.545-46.958m107.58 67.634c17.521-17.87 26.283-40.301 26.283-67.634 0-27.686-8.762-50.113-26.283-67.986-17.87-17.874-40.65-26.632-69.037-26.632-28.384 0-51.516 8.758-69.036 26.632-17.87 17.873-26.632 40.3-26.632 67.986 0 27.333 8.762 49.764 26.632 67.634 17.52 17.524 40.652 26.283 69.036 26.283 28.387 0 51.167-8.759 69.037-26.283" fill="#262626"/></g><g transform="translate(788.66 515.1)"><path d="m0 0c11.312 0 20.505 4.242 27.931 12.375 7.424 8.132 10.96 19.445 10.96 33.587 0 29.7-16.263 48.085-38.891 48.085-22.982 0-38.893-17.324-38.893-46.67v-2.121c0-13.789 3.536-24.749 10.962-32.881 7.426-8.133 16.615-12.375 27.931-12.375m-97.937-114.2v251.74h60.46v-25.103h0.352c8.485 18.031 30.76 29.698 53.74 29.698 25.105 0 45.256-8.838 59.753-26.162 14.498-17.679 21.921-41.013 21.921-70.006 0-27.93-7.423-50.558-21.921-67.883-14.497-17.324-34.648-26.163-59.753-26.163-23.686 0-45.608 10.96-53.74 27.931h-0.352v-94.047z" fill="#262626"/></g><g transform="translate(189.94 472.83)"><path d="m0 0v246.29h60.482v-246.88z" fill="#262626"/></g><g transform="translate(650.6 599.89)"><path d="m0 0c-9.785 9.319-23.444 14.451-38.461 14.451-11.543 0-23.244-3.142-32.948-8.977 18.138-3.263 29.216-19.974 29.216-43.551 0-26.356-13.834-44.805-35.908-44.805-22.402 0-36.236 18.449-36.236 44.805 0 6.876 0.95 13.162 2.74 18.709 7.328 33.116 40.714 52.477 73.136 52.477 11.432 0 22.891-2.387 33.285-7.312-1.183 1.349-2.398 2.681-3.673 3.982-17.923 17.576-40.77 26.361-69.241 26.361-28.468 0-51.668-8.785-69.241-26.361-17.923-17.923-26.711-40.42-26.711-67.834 0-27.768 8.788-50.262 26.711-68.188 17.573-17.926 40.773-26.71 69.241-26.71 28.471 0 51.318 8.784 69.241 26.71 16.423 16.754 25.117 33.935 26.243 62.809-0.849 18.4-6.812 33.356-17.394 43.434" fill="#262626"/></g><g transform="translate(626.09 289.42)"><path d="M 0,0 C -9.326,0 -16.717,-6.632 -17.597,-16.232 H 17.597 C 17.42,-7.156 10.03,0 0,0" fill="#262626"/></g><g transform="translate(751.54 278.08)"><path d="m0 0c-14.253 1.57-24.106 0-29.385-4.538-5.454-4.712-8.094-12.741-8.094-24.435v-31.242h-30.09v89.362h30.09v-24.086c5.103 18.152 17.068 26.006 37.479 26.006zm-79.17-22.516h-64.754v-0.523c0.88-10.996 8.975-17.803 18.829-17.803 8.798 0 14.429 3.666 16.892 10.996h28.682c-5.103-21.643-22.347-32.638-45.574-32.638-14.253 0-25.866 4.363-34.84 12.915-8.975 8.553-13.374 19.898-13.374 34.035 0 13.614 4.576 24.784 13.549 33.685 8.974 8.902 20.412 13.265 33.961 13.265 14.076 0 25.338-4.363 33.96-13.09 8.446-8.901 12.669-20.77 12.669-35.78zm-105.56-37.699h-30.089v12.392h-0.176c-4.223-8.901-16.188-14.661-27.626-14.661-12.493 0-22.523 4.363-29.737 13.09-7.214 8.552-10.909 20.072-10.909 34.384 0 13.788 3.695 25.133 10.909 33.685s17.244 12.741 29.737 12.741c11.79 0 22.7-5.41 26.922-13.788h0.177v44.332h30.792zm-111.82 101.4h-30.09v20.77h30.09zm0-101.4h-30.09v89.363h30.09zm-84.145-2.269c-26.218 0-42.758 11.519-44.166 35.081h26.746c0.879-9.599 6.687-14.486 17.068-14.486 8.269 0 12.493 2.618 12.493 8.029 0 2.618-1.231 4.538-3.519 5.759-2.288 1.048-7.742 2.618-16.189 4.538-0.175 0-8.974 2.095-9.502 2.269-0.703 0.175-2.286 0.524-4.574 1.222-4.751 1.222-5.103 1.745-8.797 3.491-3.696 1.745-4.224 2.793-6.864 5.411-1.231 1.221-2.111 2.618-2.639 4.014-0.88 2.618-1.935 6.283-1.935 10.297 0 18.152 14.428 28.275 39.943 28.275 24.106 0 39.414-10.821 41.35-32.638h-26.746c-1.233 9.25-5.279 13.09-14.957 13.09-7.039 0-11.965-2.967-11.965-7.679 0-2.793 1.056-4.713 3.343-5.76 2.288-1.047 7.215-2.269 14.781-3.84 11.965-2.618 19.707-4.887 23.403-6.632 8.798-4.189 13.197-11.17 13.197-20.77 0-18.676-14.957-29.671-40.471-29.671m-180.9-27.927h698.23v178.7h-698.23z" fill="#262626"/></g><g transform="translate(517.36 285.76)"><path d="m0 0c-5.63 0-10.205-2.094-13.9-6.109-3.694-4.014-5.63-9.599-5.63-16.58 0-14.661 8.269-23.738 19.53-23.738 11.438 0 19.357 8.553 19.357 23.039v1.048c-0.177 6.806-1.937 12.391-5.456 16.406-3.695 4.014-8.269 5.934-13.901 5.934" fill="#262626"/></g></g></g></svg>
