<?xml version="1.0" encoding="UTF-8"?>
<svg version="1.1" viewBox="0 0 71 67" xmlns="http://www.w3.org/2000/svg">
<title>Item816</title>
<desc>Created with Sketch.</desc>
<g fill="none" fill-rule="evenodd">
<g transform="translate(-1246 -5252)" fill="#5FEB98">
<g transform="translate(0 4743)">
<g transform="translate(360 504)">
<path d="m921.41 71.253c-0.11509 0.0087004-0.23489 0.013608-0.3547 0.013608-4.2063 0-6.9061-1.8976-9.5166-3.7329-1.8026-1.2667-3.5034-2.4622-5.5077-2.7942-0.97816-0.16107-1.9516-0.24272-2.8923-0.24272-1.6947 0-3.0318 0.26012-4.0078 0.44997-0.59318 0.11534-1.1049 0.21461-1.4939 0.21461-0.4063 0-0.84647-0.08745-1.0378-0.73753-0.16624-0.56329-0.28649-1.1087-0.40226-1.6363-0.29816-1.3582-0.50972-2.1932-1.0823-2.2806-6.671-1.0246-8.5804-2.4218-9.0062-3.4132-0.06035-0.14166-0.09445-0.28377-0.10275-0.42431-0.021538-0.38081 0.2497-0.71722 0.62818-0.77857 10.255-1.6794 14.854-12.102 15.045-12.544 0.6441-1.301 0.76682-2.3991 0.38296-3.299-0.70378-1.6493-2.9991-2.3741-4.5186-2.8533-0.37174-0.1169-0.7242-0.22755-1.0022-0.33686-3.0316-1.1917-3.284-2.4151-3.1649-3.0387 0.20326-1.0623 1.631-1.8028 2.7857-1.8028 0.31678 0 0.59542 0.055772 0.82986 0.16464 1.3638 0.63535 2.593 0.95727 3.6537 0.95727 1.4654 0 2.1051-0.61237 2.1831-0.69269-0.037242-0.69023-0.083233-1.411-0.13057-2.1548-0.30556-4.8214-0.68404-10.812 0.85006-14.231 4.5971-10.25 14.346-11.046 17.225-11.046 0.073586 0 1.262-0.012493 1.262-0.012493 3.0554-8.9235e-4 12.826 0.79687 17.426 11.053 1.5343 3.4213 1.1547 9.4172 0.84871 14.235l-0.012564 0.20948c-0.042402 0.67082-0.083457 1.3229-0.11756 1.9471 0.073362 0.074288 0.6616 0.63758 1.9902 0.68822 1.0111-0.038371 2.1712-0.3585 3.4446-0.95169 0.37332-0.17334 0.78791-0.20992 1.0699-0.20992 0.43097 0 0.868 0.082988 1.2308 0.23357 1.052 0.37189 1.7266 1.0898 1.7412 1.8398 0.013461 0.70652-0.52879 1.7684-3.1891 2.8134-0.27572 0.10775-0.62818 0.21907-1.0015 0.33686-1.5209 0.47986-3.8155 1.204-4.5188 2.8531-0.38431 0.89949-0.26114 1.9966 0.36614 3.2622 0.20775 0.47919 4.8024 10.899 15.062 12.58 0.37892 0.062241 0.64949 0.39821 0.62862 0.77924-0.008525 0.143-0.043523 0.28689-0.105 0.42677-0.42312 0.98426-2.331 2.3797-9.0044 3.405-0.54517 0.083434-0.7565 0.78973-1.0818 2.271-0.11823 0.5392-0.23826 1.0686-0.40315 1.6256-0.14201 0.48321-0.44488 0.70942-0.95438 0.70942-0.43658 0-0.93935-0.06291-1.5765-0.18739-1.1296-0.21974-2.3965-0.42208-4.0082-0.42208-0.94114 0-1.9148 0.08165-2.8936 0.24272-2.0021 0.33195-3.702 1.5252-5.5012 2.7899-2.6157 1.8396-5.315 3.7372-9.5225 3.7372-0.18307 0-0.36277-0.005131-0.54247-0.013608z"/>
</g>
</g>
</g>
</g>
</svg>
