<svg xmlns="http://www.w3.org/2000/svg" width="30" height="28" viewBox="0 0 30 28">
    <path fill="#262626" fill-rule="evenodd" d="M14.96 27.994a2 2 0 0 1-.15.006c-1.777 0-2.918-.802-4.02-1.577-.763-.536-1.481-1.04-2.328-1.18a7.55 7.55 0 0 0-1.222-.103c-.716 0-1.281.11-1.694.19-.25.048-.466.09-.63.09-.173 0-.359-.037-.44-.311a9.874 9.874 0 0 1-.17-.692c-.125-.574-.215-.926-.457-.963C1.031 23.02.224 22.43.044 22.01A.537.537 0 0 1 0 21.832a.316.316 0 0 1 .265-.329c4.333-.71 6.276-5.113 6.357-5.3.272-.55.324-1.014.162-1.394-.298-.697-1.267-1.003-1.91-1.206-.157-.05-.305-.096-.423-.142-1.28-.504-1.388-1.02-1.337-1.284.086-.449.689-.762 1.177-.762.134 0 .251.024.35.07.577.268 1.096.404 1.544.404.62 0 .89-.259.923-.292-.016-.292-.035-.597-.055-.911-.13-2.037-.29-4.568.359-6.013C9.355.342 13.475.005 14.69.005L15.224 0c1.291 0 5.42.337 7.363 4.67.648 1.446.488 3.98.359 6.015l-.006.088-.05.823c.032.031.28.27.842.29.427-.015.917-.15 1.455-.401.158-.074.333-.089.452-.089.182 0 .367.035.52.099.445.157.73.46.736.777.006.299-.223.747-1.348 1.189a7.249 7.249 0 0 1-.423.142c-.642.203-1.612.509-1.91 1.206-.161.38-.11.843.156 1.378.087.203 2.029 4.605 6.364 5.316.16.026.274.168.266.329a.526.526 0 0 1-.045.18c-.179.416-.985 1.006-3.805 1.439-.23.035-.32.334-.457.96-.05.227-.1.45-.17.686-.06.204-.188.3-.403.3-.185 0-.397-.027-.666-.08a8.465 8.465 0 0 0-1.694-.177c-.398 0-.809.034-1.223.102-.846.14-1.564.645-2.324 1.179-1.105.777-2.246 1.579-4.024 1.579-.077 0-.153-.002-.229-.006z"/>
</svg>
