<?xml version="1.0" encoding="UTF-8"?>
<svg width="57px" height="56px" viewBox="0 0 57 56" version="1.1" xmlns="http://www.w3.org/2000/svg" xmlns:xlink="http://www.w3.org/1999/xlink">
    <!-- Generator: Sketch 53 (72520) - https://sketchapp.com -->
    <title>Shape</title>
    <desc>Created with Sketch.</desc>
    <g id="PROD" stroke="none" stroke-width="1" fill="none" fill-rule="evenodd">
        <g id="14_Desktop-/-Page_Corporate" transform="translate(-815.000000, -4264.000000)" fill="#262626" fill-rule="nonzero">
            <g id="Group-10" transform="translate(663.000000, 4206.000000)">
                <path d="M152,76.4130435 L152,95.5869565 L164.93617,95.5869565 L181.106383,111.565217 L181.106383,60.4347826 L164.93617,76.4130435 L152,76.4130435 Z M194.446809,85.4071834 C194.446809,79.7860113 190.983149,74.9587902 185.957447,72.6086957 L185.957447,98.173913 C190.983149,95.8555766 194.446809,91.0283554 194.446809,85.4071834 Z M187.170213,58 L187.170213,64.5769669 C196.182796,67.322691 202.762918,75.8791334 202.762918,86 C202.762918,96.1208666 196.182796,104.677309 187.170213,107.423033 L187.170213,114 C199.675562,111.094641 209,99.6647662 209,86 C209,72.3352338 199.675562,60.9053592 187.170213,58 Z" id="Shape"></path>
            </g>
        </g>
    </g>
</svg>