<?xml version="1.0" encoding="UTF-8"?>
<svg version="1.1" viewBox="0 0 75 64" xmlns="http://www.w3.org/2000/svg">
<title>Item89</title>
<desc>Created with Sketch.</desc>
<g fill="none" fill-rule="evenodd">
<g transform="translate(-550 -5251)" fill="#5FEB98">
<g transform="translate(0 4743)">
<g transform="translate(360 504)">
<path d="m241.93 4c-8.4976 0-15.388 7.2365-15.388 16.153 0 1.2727 0.1366 2.5042 0.39776 3.6862-12.785-0.67958-24.127-7.1047-31.716-16.878-1.3219 2.3847-2.0812 5.1566-2.0812 8.122 0 5.6014 2.716 10.552 6.8463 13.443-2.5232-0.082373-4.8977-0.80726-6.9709-2.0181v0.20181c0 7.8296 5.3035 14.362 12.343 15.845-1.2897 0.36656-2.6517 0.56838-4.0539 0.56838-0.99239 0-1.9567-0.10709-2.8968-0.29654 1.9607 6.421 7.6418 11.096 14.376 11.223-5.2673 4.3328-11.901 6.9152-19.109 6.9152-1.2455 0-2.4669-0.078255-3.6723-0.22653 6.8061 4.5882 14.898 7.2612 23.588 7.2612 28.301 0 43.782-24.621 43.782-45.968 0-0.70429-0.016072-1.3962-0.048214-2.0923 3.0053-2.2776 5.6169-5.1236 7.678-8.3609-2.7562 1.285-5.7253 2.1499-8.8351 2.5371 3.174-1.9976 5.6169-5.1607 6.766-8.9334-2.9732 1.8493-6.2677 3.1961-9.7713 3.921-2.8084-3.1384-6.8061-5.103-11.234-5.103"/>
</g>
</g>
</g>
</g>
</svg>
