<?xml version="1.0" encoding="UTF-8"?>
<svg version="1.1" viewBox="0 0 92 66" xmlns="http://www.w3.org/2000/svg">
<title>Item810</title>
<desc>Created with Sketch.</desc>
<g fill="none" fill-rule="evenodd">
<g transform="translate(-779 -5251)" fill="#5FEB98">
<g transform="translate(0 4743)">
<g transform="translate(360 504)">
<path d="m456.88 53.181v-27.323l21.647 13.662-21.647 13.661zm52.195-38.941c-1.058-4.0307-4.1755-7.2047-8.1336-8.2819-7.1744-1.9577-35.944-1.9577-35.944-1.9577s-28.769 0-35.944 1.9577c-3.9581 1.0772-7.0756 4.2512-8.1336 8.2819-1.9226 7.3052-1.9226 22.548-1.9226 22.548s0 15.242 1.9226 22.548c1.058 4.0307 4.1755 7.2047 8.1336 8.2825 7.1744 1.9572 35.944 1.9572 35.944 1.9572s28.769 0 35.944-1.9572c3.9581-1.0777 7.0756-4.2518 8.1336-8.2825 1.9226-7.3052 1.9226-22.548 1.9226-22.548s0-15.242-1.9226-22.548z"/>
</g>
</g>
</g>
</g>
</svg>
