<svg xmlns="http://www.w3.org/2000/svg" width="31" height="25" viewBox="0 0 31 25">
    <path fill="#262626" fill-rule="evenodd" d="M15.365 6.31c0 .497.055.978.16 1.44-5.115-.266-9.652-2.775-12.687-6.593a6.407 6.407 0 0 0-.833 3.172 6.346 6.346 0 0 0 2.739 5.252 6.003 6.003 0 0 1-2.789-.789v.08c0 3.058 2.122 5.61 4.937 6.188a5.984 5.984 0 0 1-2.78.106c.784 2.509 3.057 4.335 5.75 4.385A12.158 12.158 0 0 1 .75 22.164 17.095 17.095 0 0 0 10.185 25c11.32 0 17.513-9.618 17.513-17.956 0-.276-.006-.546-.02-.818A12.695 12.695 0 0 0 30.75 2.96c-1.102.502-2.29.84-3.534.991a6.303 6.303 0 0 0 2.706-3.49 12.169 12.169 0 0 1-3.908 1.532A6.081 6.081 0 0 0 21.52 0c-3.399 0-6.155 2.827-6.155 6.31z"/>
</svg>
